<svg xmlns="http://www.w3.org/2000/svg" viewBox="0 0 500 500"><g id="freepik--background-complete--inject-42"><g><g><g><path d="M443.92,352.158h-180.746c-3.232,0-5.862-2.63-5.862-5.862V83.022c0-3.232,2.63-5.862,5.862-5.862h180.746c3.232,0,5.862,2.629,5.862,5.862V346.296c0,3.233-2.63,5.862-5.862,5.862ZM263.174,77.411c-3.095,0-5.612,2.518-5.612,5.612V346.296c0,3.095,2.518,5.612,5.612,5.612h180.746c3.095,0,5.612-2.517,5.612-5.612V83.022c0-3.094-2.518-5.612-5.612-5.612h-180.746Z" style="fill:#e0e0e0;"></path><path d="M235.493,352.158H54.746c-3.232,0-5.862-2.63-5.862-5.862V83.022c0-3.232,2.629-5.862,5.862-5.862H235.493c3.232,0,5.862,2.629,5.862,5.862V346.296c0,3.233-2.63,5.862-5.862,5.862ZM54.746,77.411c-3.094,0-5.612,2.518-5.612,5.612V346.296c0,3.095,2.518,5.612,5.612,5.612H235.493c3.095,0,5.612-2.517,5.612-5.612V83.022c0-3.094-2.518-5.612-5.612-5.612H54.746Z" style="fill:#e0e0e0;"></path></g><rect x="0" y="413.228" width="500" height=".25" style="fill:#e0e0e0;"></rect></g><rect x="51.672" y="427.492" width="16.06" height=".25" style="fill:#e0e0e0;"></rect><rect x="170.352" y="424.782" width="53.53" height=".25" style="fill:#e0e0e0;"></rect><rect x="68.732" y="436.782" width="36.25" height=".25" style="fill:#e0e0e0;"></rect><rect x="378.352" y="424.652" width="43.19" height=".25" style="fill:#e0e0e0;"></rect><rect x="430.452" y="424.652" width="6.33" height=".25" style="fill:#e0e0e0;"></rect><rect x="316.212" y="430.882" width="53.89" height=".25" style="fill:#e0e0e0;"></rect></g><path d="M456.12,107.752c-2.817-2.128-6.926-2.369-9.972-.585-4.043-8.17-15.31-11.776-23.345-7.471-2.096-8.804-10.77-15.571-19.82-15.462-9.049,.109-17.558,7.082-19.442,15.934-.299,1.407-.498,2.948-1.504,3.976-1.634,1.669-4.363,1.109-6.692,.927-7.329-.572-14.703,4.574-16.696,11.649l100.924-.367c.884-3.417-.637-6.473-3.454-8.601Z" style="fill:#f0f0f0;"></path><path d="M116.852,116.16c-2.817-2.128-6.926-2.369-9.972-.585-4.043-8.17-15.31-11.776-23.345-7.471-2.096-8.804-10.77-15.571-19.82-15.462-9.049,.109-17.558,7.082-19.442,15.934-.299,1.407-.498,2.948-1.504,3.976-1.634,1.669-4.363,1.109-6.693,.927-7.329-.572-14.703,4.573-16.696,11.649l100.924-.368c.884-3.417-.637-6.473-3.454-8.601Z" style="fill:#f0f0f0;"></path><path d="M458.59,216.805c-2.097-1.584-5.157-1.764-7.425-.436-3.01-6.083-11.399-8.768-17.383-5.563-1.561-6.555-8.02-11.594-14.758-11.513s-13.074,5.274-14.476,11.865c-.223,1.047-.37,2.195-1.12,2.96-1.217,1.243-3.249,.826-4.983,.69-5.457-.426-10.948,3.405-12.432,8.674l75.148-.274c.658-2.544-.475-4.82-2.572-6.404Z" style="fill:#e6e6e6;"></path><g><g><path d="M119.779,310.966c-2.058-5.073-4.897-10.128-9.577-13.212-4.883-3.217-11.368-3.757-17.02-2.842-2.925,.473-5.79,1.406-8.431,2.752-2.975,1.517-5.531,3.644-8.054,5.805-2.456,2.103-4.956,4.217-7.9,5.611-1.311,.621-2.754,1.116-4.218,1.151-1.396,.033-2.524-.611-3.694-1.295-1.45-.847-3.003-1.422-4.528-2.116-1.573-.715-3.113-1.504-4.604-2.378-3.038-1.78-5.823-3.927-8.258-6.473-.704-.736-1.861,.348-1.153,1.088,4.318,4.515,9.68,7.706,15.416,10.087,1.274,.529,2.4,1.276,3.632,1.886,1.274,.631,2.519,.877,3.937,.728,2.918-.305,5.613-1.86,7.962-3.529,2.807-1.994,5.269-4.414,8.001-6.503,2.445-1.869,5.182-3.34,8.116-4.282,5.522-1.773,12.066-1.988,17.479,.311,5.873,2.494,9.203,8.303,11.495,13.951,.383,.944,1.781,.195,1.401-.742h0Z" style="fill:#e0e0e0;"></path><path d="M60.763,312.788c.729,1.804,2.781,2.675,4.585,1.947,1.804-.728,2.675-2.781,1.947-4.585-.728-1.804-2.781-2.675-4.585-1.947-1.804,.728-2.676,2.781-1.947,4.585Z" style="fill:#e0e0e0;"></path><path d="M62.28,312.286c-7.18,4.031-15.55,5.628-23.712,4.55-1.013-.134-1.07,1.452-.066,1.584,8.416,1.111,17.119-.578,24.52-4.734,.888-.499,.149-1.901-.742-1.401h0Z" style="fill:#e0e0e0;"></path><path d="M63.076,311.294c-7.836,3.348-17.115,3.024-24.699-.861-.901-.462-1.746,.881-.835,1.348,6.29,3.222,13.622,4.188,20.54,2.737,1.969-.413,3.887-1.033,5.736-1.823,.938-.401,.191-1.8-.742-1.401h0Z" style="fill:#e0e0e0;"></path><path d="M62.601,310.299c-8.223-.426-18.255-1.086-23.419-8.551-.573-.829-1.981-.096-1.401,.742,5.548,8.021,15.844,8.932,24.754,9.394,1.021,.053,1.085-1.531,.066-1.584h0Z" style="fill:#e0e0e0;"></path><path d="M62.213,310.892c-7.065,1.958-14.818,.967-21.213-2.605-1.827-1.021-3.534-2.24-5.077-3.654-.747-.684-1.909,.397-1.154,1.088,5.728,5.245,13.537,8.052,21.295,7.728,2.196-.092,4.374-.423,6.492-1.01,.981-.272,.641-1.821-.343-1.548h0Z" style="fill:#e0e0e0;"></path><path d="M60.78,311.652c-3.269,3.105-7.862,4.328-12.29,4.183-4.534-.148-8.892-1.59-13.074-3.247-.95-.377-1.409,1.141-.466,1.515,4.438,1.76,9.103,3.264,13.922,3.327,4.703,.061,9.532-1.334,12.995-4.624,.738-.702-.346-1.858-1.088-1.153h0Z" style="fill:#e0e0e0;"></path><path d="M62.587,310.254c-7.414-1.228-14.496-4.467-20.274-9.273-.774-.643-1.939,.435-1.153,1.088,6.129,5.097,13.497,8.466,21.361,9.769,1.006,.167,1.06-1.419,.066-1.584h0Z" style="fill:#e0e0e0;"></path></g><polyline points="64.031 287.33 66.746 283.876 137.853 284.949 166.831 348.901 164.358 351.123 64.364 287.959" style="fill:#ebebeb;"></polyline><polygon points="64.031 287.33 135.161 288.553 164.358 351.123 93.551 350.519 64.031 287.33" style="fill:#e6e6e6;"></polygon><path d="M141.57,339.85c-4.121,7.706-21.341,6.531-38.462-2.624-17.121-9.155-27.66-22.824-23.539-30.53,4.121-7.706,21.341-6.531,38.462,2.624,17.121,9.155,27.66,22.824,23.539,30.53Z" style="fill:#e0e0e0;"></path><polygon points="80.778 305.042 69.405 324.991 131.013 360.063 142.146 338.426 80.778 305.042" style="fill:#e0e0e0;"></polygon><path d="M107.929,328.86c15.618,8.352,25.197,21.667,23.978,29.593,0,0,1.551-3.098,1.948-3.84,4.121-7.706-6.313-20.871-23.594-30.112-17.281-9.241-34.827-10.562-38.948-2.856-.397,.742-1.907,3.346-1.907,3.346,5.914-5.415,22.906-4.482,38.524,3.87Z" style="fill:#fafafa;"></path><ellipse cx="100.317" cy="342.35" rx="15.823" ry="35.484" transform="translate(-248.885 269.376) rotate(-61.865)" style="fill:#e6e6e6;"></ellipse><path d="M72.366,334.883c-1.222-2.306-2.4-5.575-1.075-8.054,1.464-2.739,5.835-4.056,11.992-3.614,6.968,.5,15.236,3.145,23.284,7.448,10.093,5.397,18.205,12.558,21.701,19.155,1.222,2.306,2.4,5.575,1.075,8.054-1.464,2.739-5.835,4.056-11.992,3.615-6.968-.5-15.237-3.145-23.284-7.448-10.093-5.397-18.205-12.558-21.701-19.155Z" style="fill:#e0e0e0;"></path><path d="M140.273,334.89c.309-.849-4.19-13.197-19.677-21.263,0,0-13.441,6.265-1.187,19.471,5.883,6.34,9.493,10.173,11.656,12.445,1.692,1.778,4.625,1.296,5.692-.914,2.025-4.192,3.516-9.739,3.516-9.739Z" style="fill:#fff; opacity:.1;"></path></g><path d="M312.228,54.792c-3.457-2.612-8.5-2.907-12.239-.718-4.962-10.027-18.79-14.453-28.652-9.17-2.573-10.805-13.219-19.11-24.325-18.977-11.106,.134-21.549,8.693-23.861,19.557-.368,1.726-.611,3.618-1.846,4.879-2.006,2.049-5.355,1.361-8.214,1.138-8.995-.702-18.045,5.613-20.492,14.297l123.867-.451c1.085-4.194-.782-7.945-4.239-10.556Z" style="fill:#ebebeb;"></path><g><path d="M238.4,188.803l-17.202,18.877s3.824,9.08,23.428,26.604c19.25,17.207,28.008,18.549,28.008,18.549l22.877-25.104-57.11-38.926Z" style="fill:#ebebeb;"></path><ellipse cx="247.344" cy="229.787" rx="19.152" ry="34.215" transform="translate(-89.1 257.83) rotate(-47.657)" style="fill:#ebebeb;"></ellipse><path d="M238.642,239.3c-12.161-11.082-16.861-27.393-13.449-36.004l-3.139,3.445c-7.125,7.818-1.578,24.474,12.389,37.202,13.967,12.728,31.065,16.708,38.19,8.89,.921-1.011,2.808-3.081,2.808-3.081-8.258,4.195-24.638,.63-36.799-10.452Z" style="fill:#e0e0e0;"></path><polygon points="226.185 174.014 223.277 177.204 237.93 238.567 301.929 248.879 304.836 245.689 226.185 174.014" style="fill:#e0e0e0;"></polygon><path d="M226.185,174.014c-.337,.76,14.913,61.261,14.913,61.261l63.739,10.413-17.027-60.307-61.625-11.368Z" style="fill:#f0f0f0;"></path><path d="M270.866,212.507c-1.542,1.692-5.033,1.021-7.798-1.498-2.764-2.519-3.756-5.933-2.214-7.625,1.542-1.692,5.033-1.021,7.798,1.498,2.765,2.519,3.756,5.933,2.214,7.626Z" style="fill:#e0e0e0;"></path><path d="M266.465,208.42c3.404-3.724,7.523-7.31,12.597-8.381,5.611-1.185,11.832,.812,16.522,3.891,2.476,1.626,4.686,3.644,6.477,6.006,1.98,2.609,3.404,5.572,5.06,8.384,1.533,2.605,3.331,5.226,5.767,7.072,1.103,.836,2.419,1.588,3.815,1.753,1.299,.153,2.58-.167,3.855-.364,1.603-.249,3.255-.193,4.871-.334,1.593-.139,3.18-.348,4.752-.646,3.299-.626,6.51-1.645,9.531-3.114,.886-.431,.325-1.863-.565-1.43-5.418,2.635-11.303,3.651-17.284,3.861-1.372,.048-2.693,.432-4.058,.521-1.413,.092-2.675-.509-3.796-1.328-2.478-1.811-4.243-4.49-5.769-7.106-1.676-2.872-3.135-5.891-5.199-8.516-1.825-2.321-4.038-4.347-6.507-5.967-4.753-3.119-10.917-5.224-16.651-4.388-5.94,.867-10.704,4.847-14.626,9.138-.668,.73,.545,1.676,1.209,.949h0Z" style="fill:#e0e0e0;"></path><path d="M318.391,228.931c-1.271,1.394-3.431,1.495-4.825,.224s-1.495-3.431-.224-4.825c1.271-1.394,3.431-1.494,4.825-.224s1.494,3.431,.224,4.825Z" style="fill:#e0e0e0;"></path><path d="M315.989,228.931c5.391,6.348,12.755,10.808,20.874,12.658,.964,.22,1.169-1.305,.209-1.523-7.692-1.752-14.74-6.036-19.846-12.048-.638-.751-1.877,.159-1.236,.914h0Z" style="fill:#e0e0e0;"></path><path d="M315.744,227.909c6.348,6.02,15.358,8.977,24.039,7.946,.984-.117,.8-1.643-.184-1.526-8.311,.987-16.837-1.875-22.905-7.63-.717-.68-1.662,.533-.949,1.209h0Z" style="fill:#e0e0e0;"></path><path d="M317.026,227.488c8.215,2.572,17.951,5.284,25.679-.126,.812-.569-.104-1.803-.914-1.236-7.225,5.058-16.519,2.34-24.171-.056-.935-.293-1.54,1.122-.593,1.418h0Z" style="fill:#e0e0e0;"></path><path d="M316.82,227.968c6.116,4.416,13.973,6.222,21.416,5.033,2.093-.334,4.149-.906,6.112-1.705,.918-.373,.352-1.803-.565-1.43-6.596,2.681-14.179,2.567-20.742-.163-1.868-.777-3.632-1.761-5.271-2.945-.8-.578-1.753,.629-.949,1.21h0Z" style="fill:#e0e0e0;"></path><path d="M317.355,228.516c2.039,4.16,5.913,7.087,10.221,8.623,4.475,1.594,9.271,1.793,13.975,1.688,.99-.022,.798-1.548-.184-1.526-8.2,.183-18.511-1.044-22.583-9.35-.434-.884-1.866-.324-1.43,.565h0Z" style="fill:#e0e0e0;"></path><path d="M317.245,227.505c7.499,1.45,15.323,.853,22.525-1.682,.936-.33,.366-1.758-.565-1.43-6.963,2.452-14.505,2.99-21.75,1.589-.972-.188-1.179,1.336-.209,1.523h0Z" style="fill:#e0e0e0;"></path></g><path d="M463.248,315.038c-2.817-2.128-6.926-2.369-9.972-.585-4.043-8.17-15.31-11.776-23.345-7.471-2.096-8.804-10.77-15.57-19.82-15.462-9.049,.109-17.558,7.082-19.442,15.934-.299,1.407-.498,2.948-1.504,3.976-1.634,1.669-4.363,1.109-6.693,.927-7.329-.572-14.703,4.574-16.696,11.649l100.924-.368c.884-3.417-.637-6.473-3.454-8.601Z" style="fill:#f0f0f0;"></path><path d="M226.193,258.333c-2.817-2.128-6.926-2.369-9.972-.585-4.043-8.17-15.31-11.776-23.345-7.471-2.096-8.804-10.77-15.57-19.82-15.462-9.049,.109-17.558,7.082-19.442,15.934-.299,1.407-.498,2.948-1.504,3.976-1.634,1.669-4.363,1.109-6.692,.927-7.329-.572-14.703,4.574-16.696,11.649l100.924-.367c.884-3.417-.637-6.473-3.454-8.601Z" style="fill:#f0f0f0;"></path><path d="M196.451,420.972c-2.901-2.192-7.134-2.44-10.272-.602-4.165-8.416-15.771-12.13-24.048-7.696-2.159-9.069-11.095-16.04-20.417-15.928-9.322,.112-18.087,7.296-20.027,16.414-.308,1.449-.513,3.037-1.549,4.095-1.684,1.719-4.495,1.142-6.894,.955-7.55-.589-15.146,4.711-17.199,12l103.965-.379c.91-3.52-.657-6.668-3.558-8.86Z" style="fill:#e6e6e6;"></path><path d="M414.764,382.508c-2.097-1.584-5.157-1.764-7.425-.435-3.01-6.083-11.399-8.768-17.382-5.563-1.561-6.555-8.02-11.594-14.758-11.513s-13.074,5.274-14.476,11.865c-.223,1.047-.37,2.195-1.12,2.96-1.217,1.243-3.249,.826-4.983,.691-5.457-.426-10.948,3.405-12.432,8.674l75.148-.274c.658-2.544-.475-4.82-2.572-6.404Z" style="fill:#e6e6e6;"></path><path d="M248.329,128.448c-2.343-1.77-5.761-1.971-8.294-.486-3.363-6.796-12.734-9.795-19.418-6.214-1.744-7.323-8.959-12.951-16.486-12.861-7.527,.091-14.604,5.891-16.171,13.254-.249,1.17-.414,2.452-1.251,3.307-1.359,1.388-3.629,.922-5.567,.771-6.096-.475-12.229,3.804-13.887,9.689l83.947-.306c.735-2.842-.53-5.384-2.873-7.154Z" style="fill:#f0f0f0;"></path></g><g id="freepik--Shadow--inject-42"><path d="M382.888,459.788c0,6.293-56.222,11.394-125.576,11.394s-125.576-5.101-125.576-11.394,56.222-11.394,125.576-11.394,125.576,5.101,125.576,11.394Z" style="fill:#f5f5f5;"></path></g><g id="freepik--Graduation_hat_3--inject-42"><g><path d="M186.595,330.45l-3.733,51.423s17.088,9.659,69.148,13.062c51.12,3.342,66.432-5.441,66.432-5.441l4.965-68.388-136.811,9.343Z" style="fill:#263238;"></path><ellipse cx="250.745" cy="384.404" rx="38.664" ry="67.888" transform="translate(-151.65 605.126) rotate(-85.629)" style="fill:#263238;"></ellipse><path d="M248.813,410.36c-32.553-2.448-59.864-22.499-65.084-40.43,0,0-.481,6.63-.681,9.384-1.546,21.298,27.509,40.842,64.897,43.653,37.388,2.811,68.95-12.175,70.497-33.473,.2-2.754,.609-8.393,.609-8.393-7.753,16.955-37.685,31.706-70.238,29.258Z" style="fill:#4F46E5;"></path><path d="M185.104,350.997s40.726,72.158,117.053,61.325c0,0,12.429-6.73,15.385-17.958l.77-3.075,2.965-40.845-135.429-9.694-.744,10.246Z" style="opacity:.2;"></path><polygon points="149.418 322.183 148.787 330.873 246.804 410.084 359.326 346.703 359.957 338.013 149.418 322.183" style="fill:#263238;"></polygon><polygon points="149.418 322.183 148.787 330.873 246.804 410.084 359.326 346.703 359.957 338.013 149.418 322.183" style="opacity:.4;"></polygon><path d="M149.418,322.183c.405,1.626,98.3,78.724,98.3,78.724l112.24-62.894-100.431-74.574-110.109,58.744Z" style="fill:#263238;"></path><path d="M266.3,327.642c-.335,4.61-6.605,7.895-14.006,7.339-7.4-.556-13.128-4.744-12.793-9.354,.334-4.61,6.605-7.895,14.005-7.339,7.4,.556,13.128,4.744,12.794,9.354Z" style="opacity:.4;"></path><path d="M254.425,326.634c.753-10.157,2.791-20.986,9.399-29.013,7.307-8.876,19.461-13.456,30.554-14.409,5.856-.503,11.777-.051,17.466,1.467,6.285,1.677,12.137,4.608,18.165,7.012,5.583,2.226,11.6,4.15,17.662,4.046,2.746-.047,5.72-.492,8.101-1.97,2.216-1.376,3.823-3.48,5.571-5.383,2.197-2.393,4.844-4.363,7.194-6.602,2.316-2.206,4.538-4.516,6.626-6.948,4.382-5.106,8.146-10.726,11.062-16.825,.855-1.789-1.774-3.364-2.633-1.567-5.23,10.937-13.172,19.886-22.25,27.674-2.082,1.786-3.674,4.042-5.697,5.885-2.093,1.907-4.799,2.526-7.551,2.621-6.087,.212-12.121-1.845-17.708-4.098-6.133-2.473-12.107-5.45-18.544-7.047-5.692-1.412-11.627-1.873-17.464-1.369-11.237,.97-23.438,5.307-31.363,13.782-8.21,8.78-10.772,21.038-11.639,32.744-.148,1.992,2.903,1.983,3.05,0h0Z" style="fill:#4F46E5;"></path><path d="M360.591,294.501c-.276,3.798-3.525,6.65-7.257,6.369-3.732-.281-6.534-3.587-6.258-7.385,.276-3.798,3.525-6.65,7.257-6.369,3.732,.281,6.534,3.587,6.258,7.385Z" style="fill:#4F46E5;"></path><path d="M356.843,297.494c16.189,3.364,33.145,1.272,48.083-5.909,1.774-.852,.227-3.529-1.539-2.68-14.152,6.803-30.4,8.782-45.732,5.596-1.916-.398-2.735,2.593-.811,2.993h0Z" style="fill:#4F46E5;"></path><path d="M355.208,296.177c17.28,1.651,34.965-4.881,47.252-17.336,1.392-1.411-.764-3.606-2.156-2.195-11.764,11.924-28.578,18.006-45.096,16.427-1.953-.187-1.941,2.918,0,3.104h0Z" style="fill:#4F46E5;"></path><path d="M356.694,293.911c15.973-6.153,34.49-13.978,39.927-32.203,.571-1.915-2.371-2.734-2.941-.825-5.083,17.04-22.919,24.304-37.796,30.035-1.818,.7-1.03,3.702,.811,2.993h0Z" style="fill:#4F46E5;"></path><path d="M356.962,294.929c14.955-.607,29.43-7.53,39.591-18.695,2.858-3.14,5.366-6.61,7.453-10.325,.976-1.737-1.658-3.302-2.633-1.566-7.012,12.479-18.987,21.749-32.576,25.591-3.867,1.093-7.825,1.729-11.835,1.892-1.956,.079-1.966,3.183,0,3.104h0Z" style="fill:#4F46E5;"></path><path d="M358.467,295.133c8.278,4.066,17.908,3.889,26.514,.958,8.938-3.045,16.666-8.706,23.881-14.736,1.518-1.268-.651-3.453-2.156-2.195-12.575,10.51-30.171,21.411-46.699,13.293-1.76-.864-3.308,1.811-1.539,2.68h0Z" style="fill:#4F46E5;"></path><path d="M357.058,293.664c13.481-7.042,24.962-17.741,33.098-30.745,1.057-1.69-1.581-3.248-2.634-1.566-7.866,12.572-18.978,22.827-32.004,29.631-1.747,.912-.205,3.591,1.539,2.68h0Z" style="fill:#4F46E5;"></path><path d="M360.591,294.501c-.276,3.798-3.525,6.65-7.257,6.369-3.732-.281-6.534-3.587-6.258-7.385,.276-3.798,3.525-6.65,7.257-6.369,3.732,.281,6.534,3.587,6.258,7.385Z" style="opacity:.3;"></path><path d="M261.018,267.848c-.742-2.24-103.924,52.218-103.613,55.383s64.037,53.86,66.246,53.86c7.447,0-1.866-32.337,8.086-58.924,9.953-26.587,32.079-41.871,29.28-50.319Z" style="fill:#fff; opacity:.1;"></path></g></g><g id="freepik--Graduation_hat_2--inject-42"><g><g><path d="M318.278,119.119l-22.572,35.924s8.923,13.722,46.131,36.605c36.536,22.471,51.25,22.088,51.25,22.088l30.019-47.776-104.827-46.842Z" style="fill:#263238;"></path><ellipse cx="344.958" cy="183.496" rx="31.817" ry="56.841" transform="translate(6.061 377.959) rotate(-57.858)" style="fill:#263238;"></ellipse><path d="M333.53,201.61c-23.143-14.542-35.626-39.827-32.581-54.91,0,0-2.91,4.632-4.119,6.556-9.349,14.879,4.621,40.479,31.202,57.181,26.581,16.701,55.707,18.179,65.056,3.3,1.209-1.924,3.684-5.863,3.684-5.863-12.268,9.288-40.097,8.278-63.241-6.264Z" style="fill:#4F46E5;"></path><path d="M309.259,133.473s2.336,68.43,62.984,90.477c0,0,11.789-.021,18.301-7.025l1.754-1.934,17.929-28.534-96.471-60.142-4.497,7.158Z" style="opacity:.2;"></path><polygon points="301.57 89.597 297.755 95.669 339.765 191.686 447.438 189.718 451.253 183.646 301.57 89.597" style="fill:#263238;"></polygon><polygon points="301.57 89.597 297.755 95.669 339.765 191.686 447.438 189.718 451.253 183.646 301.57 89.597" style="opacity:.4;"></polygon><path d="M301.57,89.597c-.327,1.341,42.406,95.775,42.406,95.775l107.276-1.726-45.581-93.592-104.101-.457Z" style="fill:#263238;"></path><path d="M385.95,139.389c-2.023,3.22-7.929,3.151-13.19-.155-5.261-3.306-7.886-8.596-5.863-11.816,2.023-3.22,7.929-3.151,13.19,.155,5.261,3.306,7.886,8.596,5.863,11.817Z" style="opacity:.4;"></path></g><path d="M376.196,134.827c.272,.043,.539,.118,.805,.185,.136,.034,.27,.077,.405,.115-.611-.173,.047,.018,.216,.075,.431,.144,.856,.303,1.278,.472,1.207,.485,2.378,1.058,3.515,1.689,1.55,.86,2.651,1.578,4.224,2.735,10.351,7.612,17.818,18.84,23.614,30.126,5.862,11.414,10.248,23.548,13.831,35.851,.519,1.781,3.206,.729,2.689-1.045-5.556-19.08-13.03-38.489-25.397-54.284-5.479-6.998-12.259-13.77-20.528-17.382-1.324-.579-2.76-1.16-4.198-1.385-1.833-.287-2.292,2.561-.455,2.848h0Z" style="fill:#4F46E5;"></path><g><path d="M426.454,218.011c-3.387-.39-5.817-3.451-5.427-6.838,.39-3.387,3.451-5.817,6.838-5.427,3.387,.39,5.817,3.451,5.427,6.838s-3.451,5.817-6.838,5.427Z" style="fill:#4F46E5;"></path><path d="M423.815,214.686c-3.57,14.453-2.32,29.949,3.482,43.655,.722,1.706,3.416,.671,2.689-1.045-5.623-13.283-6.782-28.155-3.323-42.155,.445-1.802-2.406-2.247-2.848-.455h0Z" style="fill:#4F46E5;"></path><path d="M425.119,212.879c-2.118,15.671,2.935,32.054,13.64,43.718,1.242,1.353,3.591-.325,2.336-1.692-10.207-11.121-15.152-26.594-13.128-41.57,.248-1.837-2.599-2.299-2.848-.455h0Z" style="fill:#4F46E5;"></path><path d="M427.135,214.693c4.86,14.615,11.195,31.731,27.136,37.298,1.741,.608,2.948-2.014,1.196-2.626-15.213-5.313-21.015-21.803-25.642-35.717-.586-1.762-3.275-.716-2.689,1.045h0Z" style="fill:#4F46E5;"></path><path d="M426.16,214.907c-.012,13.558,5.704,26.801,15.17,36.441,2.682,2.731,5.676,5.134,8.918,7.168,.665,.417,1.485,.45,2.03-.2,.451-.538,.459-1.617-.2-2.03-10.97-6.882-18.985-18.208-21.848-30.848-.807-3.561-1.206-7.199-1.203-10.85,.002-1.851-2.866-1.523-2.867,.319h0Z" style="fill:#4F46E5;"></path><path d="M425.824,216.205c-3.978,7.457-3.99,16.355-1.64,24.324,2.371,8.041,7.083,15.173,12.088,21.802,1.119,1.482,3.457-.208,2.336-1.692-4.71-6.238-9.112-12.855-11.493-20.367-2.367-7.467-2.411-15.847,1.336-22.87,.876-1.641-1.756-2.827-2.626-1.196h0Z" style="fill:#4F46E5;"></path><path d="M427.217,214.696c5.802,12.534,14.877,23.43,26.22,31.322,1.517,1.055,3.355-1.169,1.83-2.23-10.938-7.61-19.761-18.039-25.362-30.137-.776-1.676-3.472-.646-2.689,1.045h0Z" style="fill:#4F46E5;"></path><path d="M426.454,218.011c-3.387-.39-5.817-3.451-5.427-6.838,.39-3.387,3.451-5.817,6.838-5.427,3.387,.39,5.817,3.451,5.427,6.838s-3.451,5.817-6.838,5.427Z" style="opacity:.3;"></path></g><path d="M305.739,92.216l98.404,1.173,17.61,37.975s-103.596-25.595-107.524-29.007-8.489-10.141-8.489-10.141Z" style="fill:#fff; opacity:.1;"></path><path d="M308.314,139.388s-11.269,15.054-11.631,20.099c-.362,5.045-.214,15.11,5.357,19.188,5.571,4.078,12.574-32.408,11.421-39.853s-5.148,.566-5.148,.566Z" style="fill:#fff; opacity:.1;"></path></g></g><g id="freepik--Graduation_hat_1--inject-42"><g><g><path d="M126.84,137.905c-9.232-.943-19.058-.703-27.391,3.86-8.695,4.761-14.65,14.048-17.766,23.239-1.613,4.757-2.489,9.789-2.569,14.812-.089,5.661,1.069,11.177,2.303,16.671,1.202,5.348,2.384,10.771,2.135,16.288-.111,2.457-.514,5.012-1.623,7.232-1.058,2.118-2.918,3.296-4.871,4.506-2.42,1.5-4.514,3.369-6.763,5.104-2.319,1.788-4.724,3.469-7.216,5.009-5.077,3.137-10.505,5.606-16.25,7.232-1.661,.47-.955,3.064,.714,2.591,10.189-2.884,19.226-8.383,27.345-15.087,1.804-1.489,3.816-2.583,5.708-3.943,1.957-1.407,3.313-3.078,4.216-5.319,1.859-4.614,1.668-9.885,1.034-14.727-.759-5.787-2.43-11.395-3.39-17.145-.859-5.146-.89-10.414,.028-15.555,1.728-9.679,6.598-19.651,14.337-25.935,8.397-6.818,19.742-7.196,30.02-6.146,1.719,.176,1.707-2.513,0-2.687h0Z" style="fill:#4F46E5;"></path><path d="M82.73,227.753c3.28,.34,6.215-2.043,6.555-5.323,.34-3.28-2.043-6.215-5.323-6.555-3.28-.34-6.215,2.043-6.555,5.323s2.043,6.215,5.323,6.555Z" style="fill:#4F46E5;"></path><path d="M83.181,225.082c.34,13.954-3.912,27.76-12.003,39.13-1.005,1.412,1.325,2.755,2.321,1.356,8.344-11.724,12.721-26.103,12.37-40.486-.042-1.726-2.73-1.733-2.687,0h0Z" style="fill:#4F46E5;"></path><path d="M82.328,223.103c-1.204,14.395-9.054,28.037-20.893,36.313-1.407,.984-.066,3.315,1.356,2.32,9.819-6.864,17.085-17.081,20.402-28.594,.944-3.276,1.538-6.642,1.822-10.039,.144-1.723-2.544-1.714-2.687,0h0Z" style="fill:#4F46E5;"></path><path d="M80.46,223.025c-7.164,11.979-16.116,26.483-31.397,28.293-1.697,.201-1.717,2.891,0,2.687,16.418-1.945,25.955-16.645,33.717-29.624,.89-1.488-1.433-2.841-2.32-1.356h0Z" style="fill:#4F46E5;"></path><path d="M81.041,224.076c-2.675,12.136-10.312,22.963-20.738,29.707-2.979,1.927-6.161,3.515-9.503,4.705-1.618,.576-.921,3.174,.714,2.592,12.403-4.418,22.805-13.886,28.478-25.765,1.605-3.362,2.838-6.887,3.64-10.525,.371-1.685-2.219-2.405-2.591-.714h0Z" style="fill:#4F46E5;"></path><path d="M81.042,226.827c2.057,7.361,.243,15.211-3.488,21.729-3.821,6.673-9.439,12.058-15.241,17.006-1.318,1.124,.591,3.017,1.9,1.9,6.158-5.251,12.115-11.045,16.033-18.214,3.824-6.996,5.567-15.337,3.387-23.135-.465-1.663-3.059-.957-2.591,.714h0Z" style="fill:#4F46E5;"></path><path d="M80.382,223.01c-7.724,10.131-18.197,18.168-29.98,23.009-1.578,.648-.887,3.249,.714,2.591,12.5-5.136,23.394-13.498,31.587-24.244,1.048-1.375-1.285-2.715-2.321-1.356h0Z" style="fill:#4F46E5;"></path><path d="M82.73,227.753c3.28,.34,6.215-2.043,6.555-5.323,.34-3.28-2.043-6.215-5.323-6.555-3.28-.34-6.215,2.043-6.555,5.323s2.043,6.215,5.323,6.555Z" style="opacity:.3;"></path></g><polyline points="47.189 202.653 44.17 195.844 102.213 90.183 221.681 97.075 223.882 103.001 48.396 202.653" style="fill:#263238;"></polyline><polyline points="47.189 202.653 44.17 195.844 102.213 90.183 221.681 97.075 223.882 103.001 48.396 202.653" style="fill:#fff; opacity:.1;"></polyline><polygon points="45.68 202.653 105.475 97.075 222.373 103.001 165.271 208.586 45.68 202.653" style="fill:#263238;"></polygon><polygon points="45.68 202.653 105.475 97.075 222.373 103.001 165.271 208.586 45.68 202.653" style="opacity:.3;"></polygon><ellipse cx="137.965" cy="161.468" rx="59.594" ry="26.823" transform="translate(-66.653 104.568) rotate(-33.948)" style="fill:#263238;"></ellipse><polygon points="87.012 191.624 107.867 224.493 209.299 160.044 185.724 126.195 87.012 191.624" style="fill:#263238;"></polygon><path d="M144.239,169.859c24.906-16.766,52.453-20.547,63.358-12.43,0,0-3.41-4.783-4.206-5.966-8.273-12.289-36.273-7.109-63.831,11.443-27.558,18.552-43.462,43.785-35.189,56.074,.796,1.183,3.498,5.513,3.498,5.513-3.418-13.157,11.466-37.868,36.372-54.634Z" style="fill:#4F46E5;"></path><ellipse cx="158.404" cy="191.967" rx="60.152" ry="26.823" transform="translate(-80.201 121.181) rotate(-33.948)" style="fill:#263238;"></ellipse><path d="M125.035,227.909c-4.424,0-10.256-.83-12.917-4.783-2.94-4.367-1.444-11.96,4.103-20.831,6.278-10.04,16.803-20.327,29.636-28.966,16.095-10.835,33.26-17.303,45.916-17.303,4.424,0,10.256,.83,12.917,4.782,2.94,4.367,1.444,11.96-4.103,20.832-6.278,10.04-16.803,20.327-29.636,28.966-16.095,10.835-33.26,17.303-45.916,17.303Z" style="opacity:.5;"></path><path d="M178.943,126.195c-1.026-1.138-23.093-4.198-47.468,12.599,0,0-1.283,25.106,28.225,17.231,14.165-3.78,22.772-6.145,27.893-7.583,4.006-1.124,5.612-5.9,3.148-9.253-4.672-6.36-11.797-12.995-11.797-12.995Z" style="fill:#fff; opacity:.1;"></path><path d="M122.774,199.4c0-.981-25.836,27.817,7.195,25.682l15.044-3.268s-22.238-6.389-22.238-22.414Z" style="fill:#fff; opacity:.1;"></path></g></g></svg>
